<?xml version="1.0" encoding="utf-8"?>
<svg xmlns="http://www.w3.org/2000/svg" viewBox="0 0.2044 625.0049 657.9996" width="625.005px" height="658px">
  <defs>
    <linearGradient id="linearGradient3957" x1="205.38184" y1="440.67273" x2="562.50909" y2="110.81818" gradientUnits="userSpaceOnUse" gradientTransform="matrix(1.074973, 0, -0.419743, 1.057838, 47.6092, -10.657801)" href="#linearGradient3956"/>
    <linearGradient id="linearGradient3956">
      <stop style="stop-color:#ff7218;stop-opacity:1;" offset="0" id="stop3956"/>
      <stop style="stop-color:#f9c262;stop-opacity:1;" offset="1" id="stop3957"/>
    </linearGradient>
  </defs>
  <g id="g1" style="display: inline; transform-origin: 288.695px 329.922px;" transform="matrix(1.002388, 0, 0, 1.002388, 14.34794264, -0.71780402)">
    <path d="M 561.781 1.706 L 527.563 9.656 L 493.346 17.606 L 401.05 39.129 L 308.757 60.651 L 314.302 61.339 L 319.85 62.025 L 380.527 62.036 L 441.206 62.046 L 439.741 63.083 L 438.273 64.12 L 347.996 85.827 L 257.719 107.533 L 255.178 108.518 L 252.637 109.504 L 327.801 109.576 L 402.968 109.649 L 401.562 110.616 L 400.158 111.583 L 301.708 133.483 L 203.258 155.382 L 201.865 156.318 L 200.474 157.252 L 282.602 157.252 L 364.73 157.252 L 363.339 158.181 L 361.95 159.111 L 256.748 181.189 L 151.547 203.267 L 238.562 203.538 L 325.576 203.809 L 324.611 205.125 L 323.646 206.441 L 308.576 209.422 L 293.505 212.404 L 212.504 228.255 L 131.503 244.108 L 113.43 247.664 L 95.358 251.217 L 191.263 251.308 L 287.169 251.399 L 286.778 252.385 L 286.386 253.372 L 284.198 253.98 L 282.011 254.587 L 196.208 270.515 L 110.406 286.442 L 77.318 292.618 L 44.231 298.793 L 146.581 298.896 L 248.931 299.002 L 248.519 300.039 L 248.108 301.076 L 245.468 301.634 L 242.828 302.19 L 197.196 310.181 L 151.564 318.171 L 98.402 327.53 L 45.239 336.892 L 15.806 342.012 L -13.626 347.133 L 147.545 347.662 L 308.715 348.191 L 291.135 368.819 L 273.552 389.447 L 249.25 418.009 L 224.946 446.57 L 194.325 482.537 L 163.705 518.503 L 105.499 586.734 L 47.291 654.964 L 46.076 656.551 L 44.863 658.138 L 49.345 654.964 L 53.829 651.791 L 168.596 563.988 L 283.361 476.188 L 318.755 449.213 L 354.147 422.238 L 361.916 416.385 L 369.686 410.529 L 375.914 405.806 L 382.146 401.081 L 452.212 347.623 L 522.281 294.165 L 560.882 264.61 L 599.484 235.054 L 604.686 231.061 L 609.89 227.067 L 500.182 227.067 L 390.472 227.067 L 390.35 226.273 L 390.228 225.48 L 419.261 187.927 L 448.294 150.374 L 481.263 107.531 L 514.23 64.689 L 538.243 33.58 L 562.254 2.47 L 562.017 2.088 L 561.781 1.706 Z" style="fill: url(&quot;#linearGradient3957&quot;); stroke-width: 1.06637;" id="path3957"/>
  </g>
</svg>
