<?xml version="1.0" encoding="utf-8"?>
<svg xmlns="http://www.w3.org/2000/svg" viewBox="0 0.2044 2140.4421 663.0616" width="2140.44px" height="663.062px">
  <defs>
    <linearGradient id="linearGradient3957" x1="205.38184" y1="440.67273" x2="562.50909" y2="110.81818" gradientUnits="userSpaceOnUse" gradientTransform="matrix(1.074973, 0, -0.419743, 1.057838, 47.6092, -10.657801)" href="#linearGradient3956"/>
    <linearGradient id="linearGradient3956">
      <stop style="stop-color:#ff7218;stop-opacity:1;" offset="0" id="stop3956"/>
      <stop style="stop-color:#f9c262;stop-opacity:1;" offset="1" id="stop3957"/>
    </linearGradient>
    <linearGradient id="linearGradient3956-0" href="#linearGradient3956" gradientUnits="userSpaceOnUse" x1="1251.712" y1="-78.076" x2="1251.712" y2="697.908" gradientTransform="matrix(1, 0, -0.396793, 1, 122.972565, 0.204132)"/>
  </defs>
  <g transform="matrix(0.9999999999999999, 0, 0, 0.9999999999999999, -1.1368683772161603e-13, 0)">
    <g id="g1" style="display: inline; transform-origin: 288.695px 329.922px;" transform="matrix(1.002388, 0, 0, 1.002388, 14.347942, -0.717804)">
      <path d="M 561.781 1.706 L 527.563 9.656 L 493.346 17.606 L 401.05 39.129 L 308.757 60.651 L 314.302 61.339 L 319.85 62.025 L 380.527 62.036 L 441.206 62.046 L 439.741 63.083 L 438.273 64.12 L 347.996 85.827 L 257.719 107.533 L 255.178 108.518 L 252.637 109.504 L 327.801 109.576 L 402.968 109.649 L 401.562 110.616 L 400.158 111.583 L 301.708 133.483 L 203.258 155.382 L 201.865 156.318 L 200.474 157.252 L 282.602 157.252 L 364.73 157.252 L 363.339 158.181 L 361.95 159.111 L 256.748 181.189 L 151.547 203.267 L 238.562 203.538 L 325.576 203.809 L 324.611 205.125 L 323.646 206.441 L 308.576 209.422 L 293.505 212.404 L 212.504 228.255 L 131.503 244.108 L 113.43 247.664 L 95.358 251.217 L 191.263 251.308 L 287.169 251.399 L 286.778 252.385 L 286.386 253.372 L 284.198 253.98 L 282.011 254.587 L 196.208 270.515 L 110.406 286.442 L 77.318 292.618 L 44.231 298.793 L 146.581 298.896 L 248.931 299.002 L 248.519 300.039 L 248.108 301.076 L 245.468 301.634 L 242.828 302.19 L 197.196 310.181 L 151.564 318.171 L 98.402 327.53 L 45.239 336.892 L 15.806 342.012 L -13.626 347.133 L 147.545 347.662 L 308.715 348.191 L 291.135 368.819 L 273.552 389.447 L 249.25 418.009 L 224.946 446.57 L 194.325 482.537 L 163.705 518.503 L 105.499 586.734 L 47.291 654.964 L 46.076 656.551 L 44.863 658.138 L 49.345 654.964 L 53.829 651.791 L 168.596 563.988 L 283.361 476.188 L 318.755 449.213 L 354.147 422.238 L 361.916 416.385 L 369.686 410.529 L 375.914 405.806 L 382.146 401.081 L 452.212 347.623 L 522.281 294.165 L 560.882 264.61 L 599.484 235.054 L 604.686 231.061 L 609.89 227.067 L 500.182 227.067 L 390.472 227.067 L 390.35 226.273 L 390.228 225.48 L 419.261 187.927 L 448.294 150.374 L 481.263 107.531 L 514.23 64.689 L 538.243 33.58 L 562.254 2.47 L 562.017 2.088 L 561.781 1.706 Z" style="fill: url(&quot;#linearGradient3957&quot;); stroke-width: 1.06637;" id="path3957"/>
    </g>
    <path d="M 564.842 528.854 L 844.261 96.398 L 937.765 96.398 L 658.346 528.854 L 564.842 528.854 Z M 748.549 663.266 L 937.395 496.712 L 905.057 544.048 L 950.575 218.538 L 1057.52 218.538 L 1028.69 379.832 C 1027.1 390.741 1025.05 401.747 1022.55 412.851 C 1020.05 423.954 1016.64 434.96 1012.32 445.869 L 991.77 450.544 C 1000.81 441.973 1011.45 431.844 1023.68 420.156 C 1035.9 408.468 1048.45 396.585 1061.32 384.507 L 1238.1 218.538 L 1345.05 218.538 L 991.844 530.023 L 843.222 663.266 L 748.549 663.266 Z M 1352.51 535.282 C 1322.12 535.282 1299.9 528.367 1285.85 514.536 C 1271.8 500.705 1266.21 481.615 1269.09 457.265 C 1271.96 432.915 1283.47 405.156 1303.61 373.988 C 1323.75 342.82 1348.31 315.061 1377.29 290.711 C 1406.27 266.361 1437.07 247.173 1469.7 233.148 C 1502.34 219.122 1534.04 212.109 1564.82 212.109 C 1581.96 212.109 1596.49 214.349 1608.4 218.83 C 1620.31 223.31 1629.82 229.251 1636.91 236.654 C 1644.02 244.057 1648.09 252.53 1649.13 262.075 C 1650.16 271.62 1648.12 281.263 1643 291.003 L 1617.39 296.263 L 1746.53 96.398 L 1840.62 96.398 L 1561.2 528.854 L 1474.12 528.854 L 1517.57 453.466 L 1533.25 458.142 C 1525.79 467.882 1515.4 477.33 1502.08 486.485 C 1488.77 495.64 1473.84 503.822 1457.3 511.03 C 1440.76 518.237 1423.44 524.081 1405.35 528.562 C 1387.27 533.042 1369.65 535.282 1352.51 535.282 Z M 1429.78 456.388 C 1447.31 456.388 1464.87 452.882 1482.45 445.869 C 1500.03 438.856 1516.3 429.214 1531.24 416.941 C 1546.18 404.669 1558.94 390.351 1569.51 373.988 C 1580.34 357.235 1586.21 342.723 1587.12 330.45 C 1588.04 318.178 1584.17 308.633 1575.53 301.815 C 1566.88 294.997 1553.79 291.588 1536.26 291.588 C 1518.73 291.588 1501.33 294.997 1484.07 301.815 C 1466.81 308.633 1450.61 318.178 1435.47 330.45 C 1420.33 342.723 1407.35 357.235 1396.53 373.988 C 1385.96 390.351 1380.31 404.669 1379.59 416.941 C 1378.87 429.214 1382.67 438.856 1390.99 445.869 C 1399.32 452.882 1412.25 456.388 1429.78 456.388 Z M 1847.27 534.698 C 1809.48 534.698 1780.93 527.783 1761.62 513.952 C 1742.31 500.121 1732.6 481.226 1732.5 457.265 C 1732.39 433.304 1742.29 405.935 1762.17 375.157 C 1778.03 350.612 1796.86 328.405 1818.66 308.535 C 1840.46 288.666 1864 271.523 1889.29 257.108 C 1914.58 242.693 1940.45 231.589 1966.91 223.797 C 1993.38 216.005 2019.08 212.109 2044.01 212.109 C 2068.17 212.109 2087.92 215.908 2103.27 223.505 C 2118.62 231.102 2129.26 241.914 2135.2 255.939 C 2141.14 269.965 2142.03 286.523 2137.88 305.613 C 2133.72 324.704 2123.83 345.742 2108.2 368.728 L 2090.63 395.026 L 1810.7 395.026 L 1832.37 340.677 L 2049.77 340.677 L 2032.28 352.365 L 2039.83 340.677 C 2044.96 330.937 2046.43 322.171 2044.26 314.379 C 2042.09 306.587 2036.8 300.451 2028.4 295.971 C 2019.99 291.49 2008.97 289.25 1995.34 289.25 C 1977.81 289.25 1960.4 292.075 1943.11 297.724 C 1925.82 303.373 1909.61 312.042 1894.46 323.73 C 1879.31 335.418 1865.94 350.223 1854.37 368.144 C 1843.29 385.287 1838.17 400.286 1839.02 413.143 C 1839.87 426 1846.38 436.129 1858.54 443.532 C 1870.71 450.934 1888.28 454.635 1911.27 454.635 C 1931.14 454.635 1949.37 452.2 1965.96 447.33 C 1982.54 442.46 1998.68 436.324 2014.38 428.922 L 2017.18 489.699 C 1998.03 499.439 1978.56 507.718 1958.77 514.536 C 1938.97 521.354 1919.72 526.419 1901.03 529.731 C 1882.33 533.042 1864.41 534.698 1847.27 534.698 Z" style="fill: url(&quot;#linearGradient3956-0&quot;); paint-order: fill markers; stroke: rgba(186, 218, 85, 0); stroke-linecap: round; text-wrap-mode: nowrap;"/>
  </g>
</svg>
